<?xml version="1.0" encoding="UTF-8" standalone="no"?>
<svg
   xmlns:dc="http://purl.org/dc/elements/1.1/"
   xmlns:cc="http://creativecommons.org/ns#"
   xmlns:rdf="http://www.w3.org/1999/02/22-rdf-syntax-ns#"
   xmlns:svg="http://www.w3.org/2000/svg"
   xmlns="http://www.w3.org/2000/svg"
   xmlns:sodipodi="http://sodipodi.sourceforge.net/DTD/sodipodi-0.dtd"
   xmlns:inkscape="http://www.inkscape.org/namespaces/inkscape"
   version="1.1"
   id="svg2"
   xml:space="preserve"
   width="84.90667"
   height="62.693333"
   viewBox="0 0 84.90667 62.693333"
   sodipodi:docname="connpass_logo_4.eps"><metadata
     id="metadata8"><rdf:RDF><cc:Work
         rdf:about=""><dc:format>image/svg+xml</dc:format><dc:type
           rdf:resource="http://purl.org/dc/dcmitype/StillImage" /></cc:Work></rdf:RDF></metadata><defs
     id="defs6"><clipPath
       clipPathUnits="userSpaceOnUse"
       id="clipPath20"><path
         d="M 0,0 H 637 V 470 H 0 Z"
         id="path18" /></clipPath><clipPath
       clipPathUnits="userSpaceOnUse"
       id="clipPath26"><path
         d="m 0,470.156 c 209.57,-61.172 413.828,-68.125 636.797,0 l -5.508,-137.89 c -39.648,-16.289 -67.656,-55.977 -67.656,-102.305 0,-43.125 24.297,-80.508 59.648,-98.594 L 631.484,0 C 427.461,40.3125 230,33.3594 5.3125,0 l 8.2031,131.367 c 35.3907,18.086 59.6875,55.469 59.6875,98.594 0,46.328 -28.0468,86.016 -67.69529,102.305 z"
         id="path24" /></clipPath><linearGradient
       x1="0"
       y1="0"
       x2="1"
       y2="0"
       gradientUnits="userSpaceOnUse"
       gradientTransform="matrix(-2.55e-5,431.035,-583.767,-1.88e-5,318.35,-43.682)"
       spreadMethod="pad"
       id="linearGradient36"><stop
         style="stop-opacity:1;stop-color:#972a29"
         offset="0"
         id="stop28" /><stop
         style="stop-opacity:1;stop-color:#972a29"
         offset="0.01"
         id="stop30" /><stop
         style="stop-opacity:1;stop-color:#c83026"
         offset="0.99"
         id="stop32" /><stop
         style="stop-opacity:1;stop-color:#c83026"
         offset="1"
         id="stop34" /></linearGradient></defs><sodipodi:namedview
     pagecolor="#ffffff"
     bordercolor="#666666"
     borderopacity="1"
     objecttolerance="10"
     gridtolerance="10"
     guidetolerance="10"
     inkscape:pageopacity="0"
     inkscape:pageshadow="2"
     inkscape:window-width="640"
     inkscape:window-height="480"
     id="namedview4" /><g
     id="g10"
     inkscape:groupmode="layer"
     inkscape:label="ink_ext_XXXXXX"
     transform="matrix(1.3333333,0,0,-1.3333333,0,62.693333)"><g
       id="g12"
       transform="scale(0.1)"><g
         id="g14"><g
           id="g16"
           clip-path="url(#clipPath20)"><g
             id="g22"
             clip-path="url(#clipPath26)"><path
               d="m 5,0 v 11 h 1 v 16 h 1 v 16 h 1 v 16 h 1 v 16 h 1 v 17 h 1 v 16 h 1 v 16 h 1 v 8 h 1 v 1 h 2 v 1 h 2 v 1 h 1 v 1 h 2 v 1 h 2 v 1 h 1 v 1 h 2 v 1 h 1 v 1 h 1 v 1 h 1 v 1 h 2 v 1 h 1 v 1 h 1 v 1 h 1 v 1 h 2 v 1 h 1 v 1 h 1 v 1 h 1 v 1 h 1 v 1 h 1 v 1 h 1 v 1 h 1 v 1 h 1 v 2 h 1 v 1 h 1 v 1 h 1 v 1 h 1 v 1 h 1 v 1 h 1 v 2 h 1 v 1 h 1 v 2 h 1 v 1 h 1 v 1 h 1 v 2 h 1 v 1 h 1 v 2 h 1 v 2 h 1 v 2 h 1 v 2 h 1 v 2 h 1 v 2 h 1 v 2 h 1 v 3 h 1 v 3 h 1 v 2 h 1 v 3 h 1 v 3 h 1 v 5 h 1 v 4 h 1 v 5 h 1 v 10 h 1 v 12 h -1 v 10 h -1 v 5 h -1 v 4 h -1 v 4 h -1 v 4 h -1 v 3 h -1 v 2 h -1 v 3 h -1 v 2 h -1 v 3 h -1 v 2 h -1 v 2 h -1 v 2 h -1 v 2 h -1 v 1 h -1 v 2 h -1 v 2 h -1 v 2 h -1 v 1 h -1 v 1 h -1 v 2 h -1 v 1 h -1 v 1 h -1 v 2 h -1 v 1 h -1 v 1 h -1 v 1 h -1 v 2 h -1 v 1 h -1 v 1 h -1 v 1 h -1 v 1 h -1 v 1 h -1 v 1 h -2 v 1 h -1 v 1 h -1 v 1 h -1 v 1 h -1 v 1 h -1 v 1 h -1 v 1 h -2 v 1 h -1 v 1 h -1 v 1 h -2 v 1 h -1 v 1 h -2 v 1 h -1 v 1 h -2 v 1 h -1 v 1 h -2 v 1 h -2 v 1 h -2 v 1 h -2 v 1 H 8 v 1 H 6 v 1 H 5 v 13 H 4 v 25 H 3 v 25 H 2 v 25 H 1 v 25 H 0 v 25 h 4 v -1 h 4 v -1 h 3 v -1 h 4 v -1 h 4 v -1 h 3 v -1 h 4 v -1 h 4 v -1 h 4 v -1 h 3 v -1 h 4 v -1 h 4 v -1 h 4 v -1 h 4 v -1 h 5 v -1 h 4 v -1 h 4 v -1 h 4 v -1 h 4 v -1 h 4 v -1 h 5 v -1 h 4 v -1 h 5 v -1 h 5 v -1 h 5 v -1 h 5 v -1 h 4 v -1 h 5 v -1 h 5 v -1 h 6 v -1 h 6 v -1 h 6 v -1 h 5 v -1 h 6 v -1 h 6 v -1 h 7 v -1 h 7 v -1 h 7 v -1 h 7 v -1 h 7 v -1 h 8 v -1 h 10 v -1 h 10 v -1 h 10 v -1 h 11 v -1 h 15 v -1 h 16 v -1 h 31 v -1 h 41 v 1 h 27 v 1 h 20 v 1 h 12 v 1 h 12 v 1 h 11 v 1 h 10 v 1 h 8 v 1 h 7 v 1 h 8 v 1 h 8 v 1 h 7 v 1 h 6 v 1 h 6 v 1 h 6 v 1 h 6 v 1 h 6 v 1 h 6 v 1 h 6 v 1 h 4 v 1 h 5 v 1 h 5 v 1 h 5 v 1 h 5 v 1 h 4 v 1 h 5 v 1 h 5 v 1 h 4 v 1 h 4 v 1 h 4 v 1 h 4 v 1 h 4 v 1 h 4 v 1 h 5 v 1 h 4 v 1 h 4 v 1 h 4 v 1 h 3 v 1 h 4 v 1 h 4 v 1 h 3 v 1 h 4 v 1 h 3 v 1 h 4 v 1 h 3 v 1 h 4 v 1 h 3 v 1 h 4 v 1 h 4 v -20 h -1 v -25 h -1 v -25 h -1 v -25 h -1 v -25 h -1 v -18 h -1 v -1 h -2 v -1 h -2 v -1 h -2 v -1 h -2 v -1 h -2 v -1 h -2 v -1 h -2 v -1 h -1 v -1 h -1 v -1 h -2 v -1 h -1 v -1 h -2 v -1 h -1 v -1 h -2 v -1 h -1 v -1 h -1 v -1 h -1 v -1 h -2 v -1 h -1 v -1 h -1 v -1 h -1 v -1 h -1 v -1 h -1 v -1 h -1 v -1 h -1 v -1 h -1 v -1 h -1 v -1 h -1 v -1 h -1 v -2 h -1 v -1 h -1 v -1 h -1 v -2 h -1 v -1 h -1 v -1 h -1 v -1 h -1 v -2 h -1 v -1 h -1 v -2 h -1 v -2 h -1 v -1 h -1 v -2 h -1 v -2 h -1 v -2 h -1 v -1 h -1 v -3 h -1 v -2 h -1 v -3 h -1 v -2 h -1 v -3 h -1 v -2 h -1 v -4 h -1 v -4 h -1 v -5 h -1 v -4 h -1 v -10 h -1 v -14 h 1 v -10 h 1 v -4 h 1 v -5 h 1 v -5 h 1 v -2 h 1 v -3 h 1 v -3 h 1 v -3 h 1 v -2 h 1 v -2 h 1 v -2 h 1 v -2 h 1 v -2 h 1 v -2 h 1 v -2 h 1 v -2 h 1 v -1 h 1 v -2 h 1 v -1 h 1 v -2 h 1 v -1 h 1 v -1 h 1 v -2 h 1 v -1 h 1 v -2 h 1 v -1 h 1 v -1 h 1 v -1 h 1 v -1 h 1 v -1 h 1 v -1 h 1 v -1 h 1 v -1 h 1 v -1 h 1 v -1 h 1 v -1 h 1 v -1 h 1 v -1 h 2 v -1 h 1 v -1 h 1 v -1 h 1 v -1 h 2 v -1 h 1 v -1 h 1 v -1 h 2 v -1 h 1 v -1 h 2 v -1 h 1 v -1 h 2 v -1 h 2 v -1 h 2 v -1 h 1 v -12 h 1 v -16 h 1 V 88 h 1 V 72 h 1 V 56 h 1 V 40 h 1 V 24 h 1 V 8 h 1 V 0 h -6 v 1 h -5 v 1 h -5 v 1 h -6 v 1 h -6 v 1 h -6 v 1 h -6 v 1 h -6 v 1 h -7 v 1 h -6 v 1 h -6 v 1 h -6 v 1 h -7 v 1 h -8 v 1 h -9 v 1 h -9 v 1 h -9 v 1 h -8 v 1 h -9 v 1 h -9 v 1 h -8 v 1 h -11 v 1 h -16 v 1 h -16 v 1 h -16 v 1 h -16 v 1 h -41 v 1 h -63 v -1 h -33 v -1 h -28 v -1 h -15 v -1 h -14 v -1 h -14 v -1 h -14 v -1 h -15 v -1 h -10 v -1 h -10 v -1 h -9 v -1 h -10 v -1 h -9 v -1 h -10 v -1 h -9 V 12 H 96 V 11 H 87 V 10 H 79 V 9 H 72 V 8 H 64 V 7 H 57 V 6 H 49 V 5 H 41 V 4 H 34 V 3 H 26 V 2 H 19 V 1 H 13 V 0"
               style="fill:url(#linearGradient36);fill-opacity:1;fill-rule:nonzero;stroke:none"
               id="path38" /></g></g></g><path
         d="m 362.813,181.797 c -2.54,-7.266 -6.094,-13.164 -10.782,-17.578 -4.531,-4.492 -9.726,-7.696 -15.39,-9.61 -5.703,-1.914 -11.446,-2.695 -17.188,-2.265 -5.859,0.429 -11.133,1.914 -16.015,4.531 -4.844,2.578 -8.829,6.055 -11.797,10.547 -2.969,4.414 -4.493,9.766 -4.61,15.937 v 84.649 c 0.117,5.976 1.641,11.172 4.688,15.508 3.047,4.218 7.031,7.695 11.953,10.117 5,2.5 10.312,3.906 16.094,4.414 5.781,0.43 11.523,-0.274 17.109,-1.992 5.547,-1.719 10.547,-4.688 14.844,-8.75 4.297,-4.141 7.539,-9.532 9.57,-16.172 l 60.508,19.219 c -3.555,13.671 -8.906,25.273 -16.094,34.609 -7.109,9.375 -15.43,16.797 -24.765,22.422 -9.375,5.547 -19.141,9.609 -29.297,12.031 -10.157,2.539 -20,3.75 -29.493,3.633 -10.507,0 -20.937,-1.289 -31.132,-3.789 -10.157,-2.5 -19.727,-6.328 -28.711,-11.445 -8.985,-5.079 -16.914,-11.407 -23.789,-19.141 -6.875,-7.617 -12.227,-16.524 -16.094,-26.719 -3.984,-10.234 -5.938,-21.64 -6.016,-34.453 v -84.687 c 0.078,-12.813 2.032,-24.219 6.016,-34.454 3.867,-10.117 9.219,-19.023 16.094,-26.562 6.875,-7.617 14.804,-13.945 23.789,-18.945 8.984,-5.0395 18.554,-8.8286 28.711,-11.3676 10.195,-2.5 20.625,-3.711 31.132,-3.711 9.493,0 19.336,1.211 29.336,3.8282 10.079,2.5 19.805,6.6406 29.219,12.3434 9.492,5.743 18.047,13.282 25.664,22.618 7.617,9.335 13.828,20.859 18.477,34.453 l -62.031,20.781"
         style="fill:#ffffff;fill-opacity:1;fill-rule:nonzero;stroke:none"
         id="path40" /></g></g></svg>
